<svg width="180" height="45" viewBox="0 0 180 45" fill="none" xmlns="http://www.w3.org/2000/svg">
<rect x="0.5" y="1" width="179" height="43" rx="21.5" fill="#141414"/>
<rect x="0.5" y="1" width="179" height="43" rx="21.5" stroke="#262626"/>
<path d="M26.2747 13.4429C27.0473 12.1249 28.9527 12.1249 29.7253 13.4429L31.4512 16.3866C31.7332 16.8676 32.2031 17.209 32.7477 17.3286L36.0807 18.0603C37.5729 18.3879 38.1617 20.2 37.147 21.3421L34.8806 23.8931C34.5103 24.3099 34.3308 24.8624 34.3854 25.4173L34.7195 28.8132C34.869 30.3337 33.3276 31.4536 31.9278 30.8415L28.8013 29.4744C28.2904 29.251 27.7096 29.251 27.1987 29.4744L24.0722 30.8415C22.6724 31.4536 21.131 30.3337 21.2805 28.8132L21.6146 25.4173C21.6692 24.8624 21.4897 24.3099 21.1194 23.8931L18.853 21.3421C17.8383 20.2 18.4271 18.3879 19.9193 18.0603L23.2523 17.3286C23.7969 17.209 24.2668 16.8676 24.5488 16.3866L26.2747 13.4429Z" fill="#FFCE22"/>
<path d="M57.2747 13.4429C58.0473 12.1249 59.9527 12.1249 60.7253 13.4429L62.4512 16.3866C62.7332 16.8676 63.2031 17.209 63.7477 17.3286L67.0807 18.0603C68.5729 18.3879 69.1617 20.2 68.147 21.3421L65.8806 23.8931C65.5103 24.3099 65.3308 24.8624 65.3854 25.4173L65.7195 28.8132C65.869 30.3337 64.3276 31.4536 62.9278 30.8415L59.8013 29.4744C59.2904 29.251 58.7096 29.251 58.1987 29.4744L55.0722 30.8415C53.6724 31.4536 52.131 30.3337 52.2805 28.8132L52.6146 25.4173C52.6692 24.8624 52.4897 24.3099 52.1194 23.8931L49.853 21.3421C48.8383 20.2 49.4271 18.3879 50.9193 18.0603L54.2523 17.3286C54.7969 17.209 55.2668 16.8676 55.5488 16.3866L57.2747 13.4429Z" fill="#FFCE22"/>
<path d="M88.2747 13.4429C89.0473 12.1249 90.9527 12.1249 91.7253 13.4429L93.4512 16.3866C93.7332 16.8676 94.2031 17.209 94.7477 17.3286L98.0807 18.0603C99.5729 18.3879 100.162 20.2 99.147 21.3421L96.8806 23.8931C96.5103 24.3099 96.3308 24.8624 96.3854 25.4173L96.7195 28.8132C96.869 30.3337 95.3276 31.4536 93.9278 30.8415L90.8013 29.4744C90.2904 29.251 89.7096 29.251 89.1987 29.4744L86.0722 30.8415C84.6724 31.4536 83.131 30.3337 83.2805 28.8132L83.6146 25.4173C83.6692 24.8624 83.4897 24.3099 83.1194 23.8931L80.853 21.3421C79.8383 20.2 80.4271 18.3879 81.9193 18.0603L85.2523 17.3286C85.7969 17.209 86.2668 16.8676 86.5488 16.3866L88.2747 13.4429Z" fill="#FFCE22"/>
<path d="M119.275 13.4429C120.047 12.1249 121.953 12.1249 122.725 13.4429L124.451 16.3866C124.733 16.8676 125.203 17.209 125.748 17.3286L129.081 18.0603C130.573 18.3879 131.162 20.2 130.147 21.3421L127.881 23.8931C127.51 24.3099 127.331 24.8624 127.385 25.4173L127.719 28.8132C127.869 30.3337 126.328 31.4536 124.928 30.8415L121.801 29.4744C121.29 29.251 120.71 29.251 120.199 29.4744L117.072 30.8415C115.672 31.4536 114.131 30.3337 114.281 28.8132L114.615 25.4173C114.669 24.8624 114.49 24.3099 114.119 23.8931L111.853 21.3421C110.838 20.2 111.427 18.3879 112.919 18.0603L116.252 17.3286C116.797 17.209 117.267 16.8676 117.549 16.3866L119.275 13.4429Z" fill="#FFCE22"/>
<path d="M150.275 13.4429C151.047 12.1249 152.953 12.1249 153.725 13.4429L155.451 16.3866C155.733 16.8676 156.203 17.209 156.748 17.3286L160.081 18.0603C161.573 18.3879 162.162 20.2 161.147 21.3421L158.881 23.8931C158.51 24.3099 158.331 24.8624 158.385 25.4173L158.719 28.8132C158.869 30.3337 157.328 31.4536 155.928 30.8415L152.801 29.4744C152.29 29.251 151.71 29.251 151.199 29.4744L148.072 30.8415C146.672 31.4536 145.131 30.3337 145.281 28.8132L145.615 25.4173C145.669 24.8624 145.49 24.3099 145.119 23.8931L142.853 21.3421C141.838 20.2 142.427 18.3879 143.919 18.0603L147.252 17.3286C147.797 17.209 148.267 16.8676 148.549 16.3866L150.275 13.4429Z" fill="#FFCE22"/>
</svg>
