<svg width="180" height="44" viewBox="0 0 180 44" fill="none" xmlns="http://www.w3.org/2000/svg">
<rect x="0.500244" y="0.5" width="179" height="43" rx="21.5" fill="#141414"/>
<rect x="0.500244" y="0.5" width="179" height="43" rx="21.5" stroke="#262626"/>
<path d="M26.2749 12.9429C27.0476 11.6249 28.9529 11.6249 29.7256 12.9429L31.4514 15.8866C31.7334 16.3676 32.2034 16.709 32.7479 16.8286L36.0809 17.5603C37.5731 17.8879 38.1619 19.7 37.1472 20.8421L34.8809 23.3931C34.5106 23.8099 34.3311 24.3624 34.3857 24.9173L34.7197 28.3132C34.8693 29.8337 33.3278 30.9536 31.928 30.3415L28.8015 28.9744C28.2907 28.751 27.7098 28.751 27.199 28.9744L24.0724 30.3415C22.6726 30.9536 21.1312 29.8337 21.2808 28.3132L21.6148 24.9173C21.6694 24.3624 21.4899 23.8099 21.1196 23.3931L18.8533 20.8421C17.8386 19.7 18.4274 17.8879 19.9196 17.5603L23.2526 16.8286C23.7971 16.709 24.2671 16.3676 24.5491 15.8866L26.2749 12.9429Z" fill="#FFCE22"/>
<path d="M57.2749 12.9429C58.0476 11.6249 59.9529 11.6249 60.7256 12.9429L62.4514 15.8866C62.7334 16.3676 63.2034 16.709 63.7479 16.8286L67.0809 17.5603C68.5731 17.8879 69.1619 19.7 68.1472 20.8421L65.8809 23.3931C65.5106 23.8099 65.3311 24.3624 65.3857 24.9173L65.7197 28.3132C65.8693 29.8337 64.3278 30.9536 62.928 30.3415L59.8015 28.9744C59.2907 28.751 58.7098 28.751 58.199 28.9744L55.0724 30.3415C53.6726 30.9536 52.1312 29.8337 52.2808 28.3132L52.6148 24.9173C52.6694 24.3624 52.4899 23.8099 52.1196 23.3931L49.8533 20.8421C48.8386 19.7 49.4274 17.8879 50.9196 17.5603L54.2526 16.8286C54.7971 16.709 55.2671 16.3676 55.5491 15.8866L57.2749 12.9429Z" fill="#FFCE22"/>
<path d="M88.2749 12.9429C89.0476 11.6249 90.9529 11.6249 91.7256 12.9429L93.4514 15.8866C93.7334 16.3676 94.2034 16.709 94.7479 16.8286L98.0809 17.5603C99.5731 17.8879 100.162 19.7 99.1472 20.8421L96.8809 23.3931C96.5106 23.8099 96.3311 24.3624 96.3857 24.9173L96.7197 28.3132C96.8693 29.8337 95.3278 30.9536 93.928 30.3415L90.8015 28.9744C90.2907 28.751 89.7098 28.751 89.199 28.9744L86.0724 30.3415C84.6726 30.9536 83.1312 29.8337 83.2808 28.3132L83.6148 24.9173C83.6694 24.3624 83.4899 23.8099 83.1196 23.3931L80.8533 20.8421C79.8386 19.7 80.4274 17.8879 81.9196 17.5603L85.2526 16.8286C85.7971 16.709 86.2671 16.3676 86.5491 15.8866L88.2749 12.9429Z" fill="#FFCE22"/>
<path d="M119.275 12.9429C120.048 11.6249 121.953 11.6249 122.726 12.9429L124.451 15.8866C124.733 16.3676 125.203 16.709 125.748 16.8286L129.081 17.5603C130.573 17.8879 131.162 19.7 130.147 20.8421L127.881 23.3931C127.511 23.8099 127.331 24.3624 127.386 24.9173L127.72 28.3132C127.869 29.8337 126.328 30.9536 124.928 30.3415L121.802 28.9744C121.291 28.751 120.71 28.751 120.199 28.9744L117.072 30.3415C115.673 30.9536 114.131 29.8337 114.281 28.3132L114.615 24.9173C114.669 24.3624 114.49 23.8099 114.12 23.3931L111.853 20.8421C110.839 19.7 111.427 17.8879 112.92 17.5603L116.253 16.8286C116.797 16.709 117.267 16.3676 117.549 15.8866L119.275 12.9429Z" fill="#FFCE22"/>
<path d="M150.275 12.9429C151.048 11.6249 152.953 11.6249 153.726 12.9429L155.451 15.8866C155.733 16.3676 156.203 16.709 156.748 16.8286L160.081 17.5603C161.573 17.8879 162.162 19.7 161.147 20.8421L158.881 23.3931C158.511 23.8099 158.331 24.3624 158.386 24.9173L158.72 28.3132C158.869 29.8337 157.328 30.9536 155.928 30.3415L152.802 28.9744C152.291 28.751 151.71 28.751 151.199 28.9744L148.072 30.3415C146.673 30.9536 145.131 29.8337 145.281 28.3132L145.615 24.9173C145.669 24.3624 145.49 23.8099 145.12 23.3931L142.853 20.8421C141.839 19.7 142.427 17.8879 143.92 17.5603L147.253 16.8286C147.797 16.709 148.267 16.3676 148.549 15.8866L150.275 12.9429Z" fill="#FFCE22"/>
</svg>
